<svg width="209" height="31" viewBox="0 0 209 31" fill="none" xmlns="http://www.w3.org/2000/svg">
<g clip-path="url(#clip0_2925_164)">
<path d="M17.7803 11.0668C17.6396 10.1289 17.3173 9.31999 16.813 8.63999C16.3207 7.94811 15.6817 7.42064 14.8962 7.05723C14.1107 6.69364 13.2254 6.51193 12.2407 6.51193C10.9041 6.51193 9.74326 6.84617 8.75856 7.51446C7.77368 8.17087 7.0058 9.13234 6.45474 10.3985C5.90368 11.653 5.62815 13.1596 5.62815 14.9183C5.62815 16.7121 5.90368 18.2362 6.45474 19.4908C7.0058 20.7336 7.76774 21.6831 8.74091 22.3397C9.7258 22.9846 10.8747 23.3127 12.1879 23.3246C13.1609 23.3127 14.0345 23.137 14.8081 22.797C15.5937 22.4453 16.2385 21.947 16.7428 21.3021C17.2585 20.6455 17.6045 19.8659 17.7803 18.9632L23.1441 19.0159C22.9332 20.6221 22.3585 22.111 21.4207 23.4827C20.4828 24.8429 19.2166 25.9391 17.622 26.7714C16.0275 27.5921 14.1926 28.0025 12.1175 28.0025C9.83133 28.0025 7.79133 27.4867 5.99751 26.4548C4.21539 25.4114 2.81433 23.9049 1.79434 21.9353C0.786044 19.9538 0.28186 17.6149 0.28186 14.9183C0.28186 12.21 0.791806 9.87105 1.8118 7.90128C2.84369 5.91981 4.25051 4.41341 6.03262 3.38152C7.82645 2.34986 9.85474 1.83398 12.1175 1.83398C14.0754 1.83398 15.8458 2.19745 17.4285 2.92429C19.0113 3.63958 20.2951 4.6947 21.28 6.08981C22.2766 7.48511 22.8979 9.14405 23.1441 11.0668H17.7803ZM31.9198 27.6508H26.7142V2.18573H31.7791V11.8934H31.9902C32.4357 10.7562 33.1391 9.87681 34.1004 9.25552C35.0736 8.62234 36.2695 8.30575 37.688 8.30575C39.0246 8.30575 40.1912 8.59299 41.1878 9.16746C42.1844 9.74193 42.9523 10.5685 43.4916 11.6472C44.031 12.7257 44.3006 14.0038 44.3006 15.481V27.6508H39.095V16.3779C39.095 15.5923 38.9602 14.9183 38.6906 14.3555C38.4208 13.7927 38.0223 13.3649 37.4946 13.0717C36.9787 12.7785 36.3632 12.6321 35.6481 12.6321C34.9093 12.6321 34.2646 12.7902 33.7136 13.1068C33.1625 13.4117 32.7229 13.8632 32.3946 14.461C32.0781 15.0589 31.9198 15.7683 31.9198 16.5889V27.6508ZM57.0154 28.0201C55.081 28.0201 53.3986 27.6214 51.9682 26.8242C50.5495 26.027 49.4593 24.8897 48.6972 23.4125C47.935 21.9353 47.554 20.2 47.554 18.207C47.554 16.2489 47.935 14.5196 48.6972 13.0189C49.471 11.5183 50.5495 10.3575 51.9331 9.53681C53.3282 8.71616 54.952 8.30575 56.8046 8.30575C58.5163 8.30575 60.0463 8.66916 61.3945 9.39616C62.7428 10.1113 63.8039 11.1957 64.5777 12.6496C65.3633 14.1034 65.756 15.8796 65.756 17.9783V19.438H49.682V16.1844H60.8493C60.8375 15.4223 60.6618 14.7366 60.3218 14.1268C59.9935 13.5172 59.5303 13.0423 58.9324 12.7023C58.3346 12.3623 57.6546 12.1923 56.8924 12.1923C56.0835 12.1923 55.3624 12.38 54.7293 12.7551C54.0961 13.1185 53.598 13.6227 53.2344 14.2676C52.8827 14.9123 52.701 15.6159 52.6893 16.3779V19.438C52.6893 20.3993 52.871 21.2317 53.2344 21.9353C53.6097 22.627 54.1254 23.1663 54.782 23.5531C55.4386 23.9401 56.2065 24.1336 57.0858 24.1336C57.672 24.1219 58.2054 24.0338 58.6863 23.8697C59.1669 23.7055 59.5714 23.4887 59.8997 23.2191C60.228 22.9376 60.4858 22.6093 60.6735 22.2342H65.6328C65.375 23.4066 64.865 24.4266 64.1028 25.2942C63.3407 26.1618 62.3558 26.8359 61.1484 27.3167C59.9407 27.7857 58.5631 28.0201 57.0154 28.0201ZM77.6268 28.0201C75.7039 28.0201 74.0332 27.6097 72.6147 26.7891C71.196 25.9566 70.1115 24.7959 69.3611 23.307C68.6107 21.818 68.2356 20.1061 68.2356 18.1717C68.2356 16.2255 68.6167 14.5079 69.3788 13.0189C70.1409 11.53 71.2254 10.3751 72.6322 9.55446C74.0392 8.72193 75.6922 8.30575 77.5915 8.30575C79.2213 8.30575 80.6692 8.60469 81.9353 9.20275C83.2017 9.78893 84.1923 10.633 84.9074 11.7351C85.6345 12.8372 86.033 14.1093 86.1034 15.5513H81.1792C81.0853 14.9183 80.886 14.3613 80.5813 13.8806C80.2764 13.4 79.8719 13.0306 79.3679 12.7727C78.8753 12.503 78.3126 12.3623 77.6794 12.3506C76.8471 12.3623 76.1202 12.591 75.4988 13.0366C74.8775 13.4821 74.3909 14.1385 74.0392 15.0062C73.6875 15.8621 73.5115 16.8879 73.5115 18.0838C73.5115 19.3032 73.6815 20.3466 74.0215 21.2142C74.3732 22.07 74.8598 22.7325 75.4811 23.2014C76.1026 23.6587 76.8354 23.8814 77.6794 23.8697C78.2892 23.8814 78.8402 23.7642 79.3326 23.518C79.8251 23.26 80.2296 22.8966 80.546 22.4276C80.8743 21.9587 81.0853 21.3842 81.1792 20.7042H86.1034C86.0213 22.158 85.6227 23.4359 84.9074 24.538C84.204 25.6401 83.2251 26.4959 81.9706 27.1057C80.716 27.7153 79.2681 28.0201 77.6268 28.0201ZM94.0349 15.8327H94.8087L101.017 8.55193H107.014L98.748 18.1366H97.5344L94.0349 22.0759V15.8327ZM89.3217 2.18573H94.5272V27.6508H89.3217V2.18573ZM95.5648 19.2972L99.0293 15.604L107.365 27.6508H101.263L95.5648 19.2972ZM132.707 2.18573L139.794 19.438H140.094L147.163 2.18573H153.688V27.6508H148.553V10.9613H148.341L141.694 27.5276H138.159L131.529 10.9262H131.318V27.6508H126.2V2.18573H132.707ZM169.076 19.4027C168.759 19.4262 168.501 19.4438 168.303 19.4555C168.114 19.4672 167.838 19.4849 167.476 19.5083C166.502 19.5434 165.647 19.6021 164.908 19.6842C163.981 19.7544 163.255 20.0066 162.728 20.4404C162.211 20.8625 161.948 21.437 161.936 22.1638C161.936 22.6327 162.059 23.0374 162.305 23.3774C162.551 23.7055 162.886 23.9576 163.307 24.1336C163.741 24.3093 164.24 24.3914 164.802 24.3797C165.576 24.3914 166.268 24.2449 166.878 23.9401C167.5 23.6236 167.979 23.1955 168.319 22.6563C168.66 22.1053 168.829 21.4955 168.829 20.8272L168.795 14.6545C168.795 14.1151 168.678 13.6579 168.443 13.2827C168.22 12.8957 167.88 12.6085 167.422 12.421C166.965 12.2217 166.414 12.1221 165.769 12.1221C164.878 12.1221 164.157 12.3096 163.606 12.6849C163.068 13.0483 162.728 13.564 162.587 14.2323H157.627C157.733 13.1068 158.125 12.0985 158.805 11.2075C159.485 10.3047 160.423 9.59552 161.619 9.07958C162.827 8.56363 164.251 8.30575 165.893 8.30575C167.37 8.30575 168.719 8.52852 169.938 8.97405C171.157 9.41957 172.135 10.1347 172.875 11.1196C173.614 12.0927 173.988 13.3121 174.001 14.7776V27.6508H169.058V25.0129H168.917C168.425 25.9391 167.71 26.6718 166.772 27.2112C165.847 27.7387 164.69 28.0025 163.307 28.0025C162.077 28.0025 160.986 27.7914 160.037 27.3695C159.087 26.9357 158.337 26.2908 157.785 25.4348C157.234 24.5791 156.959 23.5414 156.959 22.3221C156.959 20.3408 157.615 18.8987 158.928 17.9959C160.242 17.0815 161.953 16.5596 164.064 16.4306C164.638 16.3838 165.26 16.3487 165.928 16.3251C166.608 16.29 167.258 16.2549 167.88 16.2196C168.267 16.2079 168.654 16.1962 169.041 16.1844L169.076 19.4027ZM188.017 12.4562H176.585V8.55193H188.017V12.4562ZM184.43 3.97958V21.777C184.43 22.2693 184.5 22.6563 184.64 22.9376C184.791 23.2074 184.997 23.4008 185.256 23.518C185.524 23.6353 185.854 23.6938 186.239 23.6938C186.416 23.7055 186.634 23.7055 186.891 23.6938C187.149 23.6821 187.406 23.6704 187.664 23.6587L188.28 23.6059V27.7212C187.484 27.8501 186.574 27.9146 185.555 27.9146C184.264 27.9146 183.146 27.7212 182.195 27.3342C181.246 26.9357 180.507 26.3376 179.98 25.5404C179.463 24.7314 179.205 23.7174 179.205 22.498V3.97958H184.43ZM199.746 28.0201C197.812 28.0201 196.13 27.6214 194.7 26.8242C193.281 26.027 192.189 24.8897 191.428 23.4125C190.666 21.9353 190.286 20.2 190.286 18.207C190.286 16.2489 190.666 14.5196 191.428 13.0189C192.202 11.5183 193.281 10.3575 194.664 9.53681C196.059 8.71616 197.684 8.30575 199.535 8.30575C201.248 8.30575 202.777 8.66916 204.125 9.39616C205.474 10.1113 206.535 11.1957 207.309 12.6496C208.094 14.1034 208.487 15.8796 208.487 17.9783V19.438H192.413V16.1844H203.58C203.569 15.4223 203.392 14.7366 203.052 14.1268C202.724 13.5172 202.261 13.0423 201.664 12.7023C201.066 12.3623 200.385 12.1923 199.623 12.1923C198.815 12.1923 198.093 12.38 197.46 12.7551C196.827 13.1185 196.329 13.6227 195.966 14.2676C195.615 14.9123 195.433 15.6159 195.42 16.3779V19.438C195.42 20.3993 195.602 21.2317 195.966 21.9353C196.34 22.627 196.857 23.1663 197.513 23.5531C198.17 23.9401 198.937 24.1336 199.818 24.1336C200.403 24.1219 200.936 24.0338 201.417 23.8697C201.898 23.7055 202.303 23.4887 202.631 23.2191C202.958 22.9376 203.218 22.6093 203.405 22.2342H208.365C208.105 23.4066 207.596 24.4266 206.834 25.2942C206.072 26.1618 205.087 26.8359 203.879 27.3167C202.672 27.7857 201.294 28.0201 199.746 28.0201Z" fill="white"/>
<path d="M113.165 6.53313C113.165 5.68908 113.441 4.99143 113.992 4.44037C114.555 3.87761 115.246 3.59631 116.067 3.59631C117.404 3.59631 118.324 4.18249 118.828 5.35484C118.981 5.71843 119.057 6.11119 119.057 6.53313C119.057 7.35396 118.776 8.05142 118.213 8.62589C117.65 9.17695 116.935 9.45248 116.067 9.45248C115.246 9.45248 114.555 9.17695 113.992 8.62589C113.441 8.06313 113.165 7.36566 113.165 6.53313ZM115.821 18.4392C117.99 18.4392 119.074 19.6761 119.074 22.1499C119.074 25.0224 118.119 27.4845 116.208 29.5362C115.692 30.099 115.241 30.4741 114.854 30.6618C114.42 30.6618 114.027 30.4447 113.675 30.0109C113.57 29.882 113.517 29.7473 113.517 29.6065C113.587 29.5009 113.716 29.3192 113.904 29.0613C114.103 28.8035 114.309 28.4809 114.52 28.0941C115.035 27.0858 115.293 26.0424 115.293 24.9637C115.293 23.5099 114.584 22.7303 113.165 22.6248C113.001 22.2378 112.919 21.8392 112.919 21.4288C112.919 21.0067 112.984 20.6258 113.113 20.2858C113.253 19.9339 113.453 19.6233 113.711 19.3537C114.273 18.7439 114.977 18.4392 115.821 18.4392Z" fill="white"/>
</g>
<defs>
<clipPath id="clip0_2925_164">
<rect width="208.509" height="29.7869" fill="white" transform="translate(0.127197 0.97876)"/>
</clipPath>
</defs>
</svg>
