<svg width="23" height="23" viewBox="0 0 23 23" fill="none" xmlns="http://www.w3.org/2000/svg">
<mask id="mask0_2601_44" style="mask-type:luminance" maskUnits="userSpaceOnUse" x="1" y="1" width="21" height="21">
<path d="M21.5 1.5H1.5V21.5H21.5V1.5Z" fill="white"/>
</mask>
<g mask="url(#mask0_2601_44)">
<path d="M19.8332 10.6667H18.9499C18.7602 8.97714 18.0022 7.40214 16.8 6.19994C15.5978 4.99774 14.0228 4.23967 12.3332 4.05004V3.16671C12.3332 2.94569 12.2454 2.73373 12.0891 2.57745C11.9329 2.42117 11.7209 2.33337 11.4999 2.33337C11.2789 2.33337 11.0669 2.42117 10.9106 2.57745C10.7543 2.73373 10.6665 2.94569 10.6665 3.16671V4.05004C8.97702 4.23967 7.40202 4.99774 6.19982 6.19994C4.99762 7.40214 4.23955 8.97714 4.04992 10.6667H3.16659C2.94557 10.6667 2.73361 10.7545 2.57733 10.9108C2.42105 11.0671 2.33325 11.279 2.33325 11.5C2.33325 11.7211 2.42105 11.933 2.57733 12.0893C2.73361 12.2456 2.94557 12.3334 3.16659 12.3334H4.04992C4.23955 14.0229 4.99762 15.5979 6.19982 16.8001C7.40202 18.0023 8.97702 18.7604 10.6665 18.95V19.8334C10.6665 20.0544 10.7543 20.2663 10.9106 20.4226C11.0669 20.5789 11.2789 20.6667 11.4999 20.6667C11.7209 20.6667 11.9329 20.5789 12.0891 20.4226C12.2454 20.2663 12.3332 20.0544 12.3332 19.8334V18.95C14.0228 18.7604 15.5978 18.0023 16.8 16.8001C18.0022 15.5979 18.7602 14.0229 18.9499 12.3334H19.8332C20.0542 12.3334 20.2662 12.2456 20.4225 12.0893C20.5787 11.933 20.6665 11.7211 20.6665 11.5C20.6665 11.279 20.5787 11.0671 20.4225 10.9108C20.2662 10.7545 20.0542 10.6667 19.8332 10.6667ZM16.4999 12.3334H17.2665C17.0857 13.5775 16.5077 14.7299 15.6187 15.6189C14.7297 16.5078 13.5773 17.0858 12.3332 17.2667V16.5C12.3332 16.279 12.2454 16.0671 12.0891 15.9108C11.9329 15.7545 11.7209 15.6667 11.4999 15.6667C11.2789 15.6667 11.0669 15.7545 10.9106 15.9108C10.7543 16.0671 10.6665 16.279 10.6665 16.5V17.2667C9.42247 17.0858 8.27008 16.5078 7.3811 15.6189C6.49213 14.7299 5.91414 13.5775 5.73325 12.3334H6.49992C6.72093 12.3334 6.93289 12.2456 7.08917 12.0893C7.24545 11.933 7.33325 11.7211 7.33325 11.5C7.33325 11.279 7.24545 11.0671 7.08917 10.9108C6.93289 10.7545 6.72093 10.6667 6.49992 10.6667H5.73325C5.91414 9.42259 6.49213 8.2702 7.3811 7.38122C8.27008 6.49225 9.42247 5.91426 10.6665 5.73337V6.50004C10.6665 6.72105 10.7543 6.93302 10.9106 7.0893C11.0669 7.24558 11.2789 7.33337 11.4999 7.33337C11.7209 7.33337 11.9329 7.24558 12.0891 7.0893C12.2454 6.93302 12.3332 6.72105 12.3332 6.50004V5.73337C13.5773 5.91426 14.7297 6.49225 15.6187 7.38122C16.5077 8.2702 17.0857 9.42259 17.2665 10.6667H16.4999C16.2789 10.6667 16.0669 10.7545 15.9106 10.9108C15.7543 11.0671 15.6665 11.279 15.6665 11.5C15.6665 11.7211 15.7543 11.933 15.9106 12.0893C16.0669 12.2456 16.2789 12.3334 16.4999 12.3334ZM13.9999 11.5C13.9999 11.9945 13.8533 12.4778 13.5786 12.889C13.3038 13.3001 12.9134 13.6205 12.4566 13.8097C11.9998 13.999 11.4971 14.0485 11.0122 13.952C10.5272 13.8555 10.0818 13.6174 9.73215 13.2678C9.38252 12.9182 9.14442 12.4727 9.04796 11.9878C8.95149 11.5028 9.001 11.0001 9.19022 10.5433C9.37944 10.0865 9.69987 9.69607 10.111 9.42137C10.5221 9.14666 11.0054 9.00004 11.4999 9.00004C12.1629 9.00004 12.7988 9.26343 13.2676 9.73227C13.7365 10.2011 13.9999 10.837 13.9999 11.5Z" fill="#FF5151"/>
</g>
</svg>
