<svg width="23" height="23" viewBox="0 0 23 23" fill="none" xmlns="http://www.w3.org/2000/svg">
<path d="M14.5249 15.8084L15.8082 14.525L12.4165 11.1334V6.91671H10.5832V11.8667L14.5249 15.8084ZM11.4999 20.6667C10.2319 20.6667 9.0402 20.4261 7.92492 19.9448C6.80964 19.4636 5.8395 18.8105 5.0145 17.9855C4.1895 17.1605 3.53638 16.1903 3.05513 15.075C2.57388 13.9598 2.33325 12.7681 2.33325 11.5C2.33325 10.232 2.57388 9.04032 3.05513 7.92504C3.53638 6.80976 4.1895 5.83962 5.0145 5.01462C5.8395 4.18962 6.80964 3.5365 7.92492 3.05525C9.0402 2.574 10.2319 2.33337 11.4999 2.33337C12.7679 2.33337 13.9596 2.574 15.0749 3.05525C16.1902 3.5365 17.1603 4.18962 17.9853 5.01462C18.8103 5.83962 19.4634 6.80976 19.9447 7.92504C20.4259 9.04032 20.6665 10.232 20.6665 11.5C20.6665 12.7681 20.4259 13.9598 19.9447 15.075C19.4634 16.1903 18.8103 17.1605 17.9853 17.9855C17.1603 18.8105 16.1902 19.4636 15.0749 19.9448C13.9596 20.4261 12.7679 20.6667 11.4999 20.6667ZM11.4999 18.8334C13.5318 18.8334 15.262 18.1191 16.6905 16.6907C18.119 15.2622 18.8332 13.532 18.8332 11.5C18.8332 9.4681 18.119 7.73789 16.6905 6.30942C15.262 4.88094 13.5318 4.16671 11.4999 4.16671C9.46798 4.16671 7.73777 4.88094 6.30929 6.30942C4.88082 7.73789 4.16659 9.4681 4.16659 11.5C4.16659 13.532 4.88082 15.2622 6.30929 16.6907C7.73777 18.1191 9.46798 18.8334 11.4999 18.8334Z" fill="#A64EFF"/>
</svg>
