<svg width="24" height="24" viewBox="0 0 24 24" fill="none" xmlns="http://www.w3.org/2000/svg">
<path d="M8.44996 18.9C8.19996 19.0334 7.9458 19.0542 7.68746 18.9625C7.42913 18.8709 7.2333 18.7 7.09996 18.45L1.09996 6.45002C0.966631 6.20002 0.945798 5.94586 1.03746 5.68752C1.12913 5.42919 1.29996 5.23336 1.54996 5.10002C1.79996 4.96669 2.05413 4.94586 2.31246 5.03752C2.5708 5.12919 2.76663 5.30002 2.89996 5.55002L8.89996 17.55C9.0333 17.8 9.05413 18.0542 8.96246 18.3125C8.8708 18.5709 8.69996 18.7667 8.44996 18.9ZM13.125 18.9C12.875 19.0334 12.6208 19.0542 12.3625 18.9625C12.1041 18.8709 11.9083 18.7 11.775 18.45L5.77496 6.45002C5.64163 6.20002 5.6208 5.94586 5.71246 5.68752C5.80413 5.42919 5.97496 5.23336 6.22496 5.10002C6.47496 4.96669 6.72496 4.94586 6.97496 5.03752C7.22496 5.12919 7.41663 5.30002 7.54996 5.55002L13.575 17.55C13.7083 17.8 13.7291 18.0542 13.6375 18.3125C13.5458 18.5709 13.375 18.7667 13.125 18.9ZM17.8 18.875C17.55 19.0084 17.2958 19.0334 17.0375 18.95C16.7791 18.8667 16.5833 18.7 16.45 18.45L10.45 6.45002C10.3166 6.20002 10.2958 5.94586 10.3875 5.68752C10.4791 5.42919 10.65 5.23336 10.9 5.10002C11.15 4.96669 11.4 4.94586 11.65 5.03752C11.9 5.12919 12.0916 5.30002 12.225 5.55002L18.25 17.55C18.3833 17.8 18.4041 18.05 18.3125 18.3C18.2208 18.55 18.05 18.7417 17.8 18.875ZM22.45 18.9C22.2 19.0334 21.9458 19.0542 21.6875 18.9625C21.4291 18.8709 21.2333 18.7 21.1 18.45L15.1 6.45002C14.9666 6.20002 14.9458 5.94586 15.0375 5.68752C15.1291 5.42919 15.3 5.23336 15.55 5.10002C15.8 4.96669 16.0541 4.94586 16.3125 5.03752C16.5708 5.12919 16.7666 5.30002 16.9 5.55002L22.9 17.55C23.0333 17.8 23.0541 18.0542 22.9625 18.3125C22.8708 18.5709 22.7 18.7667 22.45 18.9Z" fill="white"/>
</svg>
