<svg width="25" height="25" viewBox="0 0 25 25" fill="none" xmlns="http://www.w3.org/2000/svg">
<path d="M6.5 19.5C6.21667 19.5 5.97917 19.4042 5.7875 19.2125C5.59583 19.0208 5.5 18.7833 5.5 18.5C5.5 18.2167 5.59583 17.9792 5.7875 17.7875C5.97917 17.5958 6.21667 17.5 6.5 17.5C6.78333 17.5 7.02083 17.5958 7.2125 17.7875C7.40417 17.9792 7.5 18.2167 7.5 18.5C7.5 18.7833 7.40417 19.0208 7.2125 19.2125C7.02083 19.4042 6.78333 19.5 6.5 19.5ZM18.5 19.5C18.2167 19.5 17.9792 19.4042 17.7875 19.2125C17.5958 19.0208 17.5 18.7833 17.5 18.5C17.5 18.2167 17.5958 17.9792 17.7875 17.7875C17.9792 17.5958 18.2167 17.5 18.5 17.5C18.7833 17.5 19.0208 17.5958 19.2125 17.7875C19.4042 17.9792 19.5 18.2167 19.5 18.5C19.5 18.7833 19.4042 19.0208 19.2125 19.2125C19.0208 19.4042 18.7833 19.5 18.5 19.5ZM9.5 23.5C9.21667 23.5 8.97917 23.4042 8.7875 23.2125C8.59583 23.0208 8.5 22.7833 8.5 22.5C8.5 22.2167 8.59583 21.9792 8.7875 21.7875C8.97917 21.5958 9.21667 21.5 9.5 21.5C9.78333 21.5 10.0208 21.5958 10.2125 21.7875C10.4042 21.9792 10.5 22.2167 10.5 22.5C10.5 22.7833 10.4042 23.0208 10.2125 23.2125C10.0208 23.4042 9.78333 23.5 9.5 23.5ZM12.5 19.5C12.2167 19.5 11.9792 19.4042 11.7875 19.2125C11.5958 19.0208 11.5 18.7833 11.5 18.5C11.5 18.2167 11.5958 17.9792 11.7875 17.7875C11.9792 17.5958 12.2167 17.5 12.5 17.5C12.7833 17.5 13.0208 17.5958 13.2125 17.7875C13.4042 17.9792 13.5 18.2167 13.5 18.5C13.5 18.7833 13.4042 19.0208 13.2125 19.2125C13.0208 19.4042 12.7833 19.5 12.5 19.5ZM15.5 23.5C15.2167 23.5 14.9792 23.4042 14.7875 23.2125C14.5958 23.0208 14.5 22.7833 14.5 22.5C14.5 22.2167 14.5958 21.9792 14.7875 21.7875C14.9792 21.5958 15.2167 21.5 15.5 21.5C15.7833 21.5 16.0208 21.5958 16.2125 21.7875C16.4042 21.9792 16.5 22.2167 16.5 22.5C16.5 22.7833 16.4042 23.0208 16.2125 23.2125C16.0208 23.4042 15.7833 23.5 15.5 23.5ZM8 16.5C6.48333 16.5 5.1875 15.9625 4.1125 14.8875C3.0375 13.8125 2.5 12.5167 2.5 11C2.5 9.61667 2.95833 8.40833 3.875 7.375C4.79167 6.34167 5.925 5.73333 7.275 5.55C7.80833 4.6 8.5375 3.85417 9.4625 3.3125C10.3875 2.77083 11.4 2.5 12.5 2.5C14 2.5 15.3042 2.97917 16.4125 3.9375C17.5208 4.89583 18.1917 6.09167 18.425 7.525C19.575 7.625 20.5417 8.1 21.325 8.95C22.1083 9.8 22.5 10.8167 22.5 12C22.5 13.25 22.0625 14.3125 21.1875 15.1875C20.3125 16.0625 19.25 16.5 18 16.5H8ZM8 14.5H18C18.7 14.5 19.2917 14.2583 19.775 13.775C20.2583 13.2917 20.5 12.7 20.5 12C20.5 11.3 20.2583 10.7083 19.775 10.225C19.2917 9.74167 18.7 9.5 18 9.5H16.5V8.5C16.5 7.4 16.1083 6.45833 15.325 5.675C14.5417 4.89167 13.6 4.5 12.5 4.5C11.7 4.5 10.9708 4.71667 10.3125 5.15C9.65417 5.58333 9.15833 6.16667 8.825 6.9L8.575 7.5H7.95C7 7.53333 6.1875 7.8875 5.5125 8.5625C4.8375 9.2375 4.5 10.05 4.5 11C4.5 11.9667 4.84167 12.7917 5.525 13.475C6.20833 14.1583 7.03333 14.5 8 14.5Z" fill="white"/>
</svg>
