<svg width="25" height="25" viewBox="0 0 25 25" fill="none" xmlns="http://www.w3.org/2000/svg">
<path d="M12.5 5.5C12.2167 5.5 11.9792 5.40417 11.7875 5.2125C11.5958 5.02083 11.5 4.78333 11.5 4.5V2.5C11.5 2.21667 11.5958 1.97917 11.7875 1.7875C11.9792 1.59583 12.2167 1.5 12.5 1.5C12.7833 1.5 13.0208 1.59583 13.2125 1.7875C13.4042 1.97917 13.5 2.21667 13.5 2.5V4.5C13.5 4.78333 13.4042 5.02083 13.2125 5.2125C13.0208 5.40417 12.7833 5.5 12.5 5.5ZM17.45 7.55C17.2667 7.36667 17.175 7.1375 17.175 6.8625C17.175 6.5875 17.2667 6.35 17.45 6.15L18.85 4.725C19.05 4.525 19.2875 4.425 19.5625 4.425C19.8375 4.425 20.075 4.525 20.275 4.725C20.4583 4.90833 20.55 5.14167 20.55 5.425C20.55 5.70833 20.4583 5.94167 20.275 6.125L18.85 7.55C18.6667 7.73333 18.4333 7.825 18.15 7.825C17.8667 7.825 17.6333 7.73333 17.45 7.55ZM20.5 13.5C20.2167 13.5 19.9792 13.4042 19.7875 13.2125C19.5958 13.0208 19.5 12.7833 19.5 12.5C19.5 12.2167 19.5958 11.9792 19.7875 11.7875C19.9792 11.5958 20.2167 11.5 20.5 11.5H22.5C22.7833 11.5 23.0208 11.5958 23.2125 11.7875C23.4042 11.9792 23.5 12.2167 23.5 12.5C23.5 12.7833 23.4042 13.0208 23.2125 13.2125C23.0208 13.4042 22.7833 13.5 22.5 13.5H20.5ZM12.5 23.5C12.2167 23.5 11.9792 23.4042 11.7875 23.2125C11.5958 23.0208 11.5 22.7833 11.5 22.5V20.5C11.5 20.2167 11.5958 19.9792 11.7875 19.7875C11.9792 19.5958 12.2167 19.5 12.5 19.5C12.7833 19.5 13.0208 19.5958 13.2125 19.7875C13.4042 19.9792 13.5 20.2167 13.5 20.5V22.5C13.5 22.7833 13.4042 23.0208 13.2125 23.2125C13.0208 23.4042 12.7833 23.5 12.5 23.5ZM6.15 7.55L4.725 6.15C4.525 5.95 4.425 5.70833 4.425 5.425C4.425 5.14167 4.525 4.90833 4.725 4.725C4.90833 4.54167 5.14167 4.45 5.425 4.45C5.70833 4.45 5.94167 4.54167 6.125 4.725L7.55 6.15C7.73333 6.33333 7.825 6.56667 7.825 6.85C7.825 7.13333 7.73333 7.36667 7.55 7.55C7.35 7.73333 7.11667 7.825 6.85 7.825C6.58333 7.825 6.35 7.73333 6.15 7.55ZM18.85 20.275L17.45 18.85C17.2667 18.65 17.175 18.4125 17.175 18.1375C17.175 17.8625 17.2667 17.6333 17.45 17.45C17.6333 17.2667 17.8625 17.175 18.1375 17.175C18.4125 17.175 18.65 17.2667 18.85 17.45L20.275 18.85C20.475 19.0333 20.5708 19.2667 20.5625 19.55C20.5542 19.8333 20.4583 20.075 20.275 20.275C20.075 20.475 19.8333 20.575 19.55 20.575C19.2667 20.575 19.0333 20.475 18.85 20.275ZM2.5 13.5C2.21667 13.5 1.97917 13.4042 1.7875 13.2125C1.59583 13.0208 1.5 12.7833 1.5 12.5C1.5 12.2167 1.59583 11.9792 1.7875 11.7875C1.97917 11.5958 2.21667 11.5 2.5 11.5H4.5C4.78333 11.5 5.02083 11.5958 5.2125 11.7875C5.40417 11.9792 5.5 12.2167 5.5 12.5C5.5 12.7833 5.40417 13.0208 5.2125 13.2125C5.02083 13.4042 4.78333 13.5 4.5 13.5H2.5ZM4.725 20.275C4.54167 20.0917 4.45 19.8583 4.45 19.575C4.45 19.2917 4.54167 19.0583 4.725 18.875L6.15 17.45C6.33333 17.2667 6.5625 17.175 6.8375 17.175C7.1125 17.175 7.35 17.2667 7.55 17.45C7.75 17.65 7.85 17.8875 7.85 18.1625C7.85 18.4375 7.75 18.675 7.55 18.875L6.15 20.275C5.95 20.475 5.70833 20.575 5.425 20.575C5.14167 20.575 4.90833 20.475 4.725 20.275ZM12.5 18.5C10.8333 18.5 9.41667 17.9167 8.25 16.75C7.08333 15.5833 6.5 14.1667 6.5 12.5C6.5 10.8333 7.08333 9.41667 8.25 8.25C9.41667 7.08333 10.8333 6.5 12.5 6.5C14.1667 6.5 15.5833 7.08333 16.75 8.25C17.9167 9.41667 18.5 10.8333 18.5 12.5C18.5 14.1667 17.9167 15.5833 16.75 16.75C15.5833 17.9167 14.1667 18.5 12.5 18.5ZM12.5 16.5C13.6 16.5 14.5417 16.1083 15.325 15.325C16.1083 14.5417 16.5 13.6 16.5 12.5C16.5 11.4 16.1083 10.4583 15.325 9.675C14.5417 8.89167 13.6 8.5 12.5 8.5C11.4 8.5 10.4583 8.89167 9.675 9.675C8.89167 10.4583 8.5 11.4 8.5 12.5C8.5 13.6 8.89167 14.5417 9.675 15.325C10.4583 16.1083 11.4 16.5 12.5 16.5Z" fill="white"/>
</svg>
