<svg width="25" height="25" viewBox="0 0 25 25" fill="none" xmlns="http://www.w3.org/2000/svg">
<g clip-path="url(#clip0_2601_56)">
<path d="M13.5 22.85L14.4 21.825L13.55 21.4C13.2667 21.25 13.0917 21.0167 13.025 20.7C12.9583 20.3833 13.0333 20.1 13.25 19.85L15 17.85C15.0833 17.7333 15.1958 17.6458 15.3375 17.5875C15.4792 17.5292 15.6167 17.5 15.75 17.5C16.1833 17.5 16.4875 17.6917 16.6625 18.075C16.8375 18.4583 16.7833 18.8167 16.5 19.15L15.6 20.175L16.45 20.6C16.7333 20.75 16.9083 20.9833 16.975 21.3C17.0417 21.6167 16.9667 21.9 16.75 22.15L15 24.15C14.9167 24.2667 14.8042 24.3542 14.6625 24.4125C14.5208 24.4708 14.3833 24.5 14.25 24.5C13.8167 24.5 13.5125 24.3083 13.3375 23.925C13.1625 23.5417 13.2167 23.1833 13.5 22.85ZM7.5 22.85L8.4 21.825L7.55 21.4C7.26667 21.25 7.09167 21.0167 7.025 20.7C6.95833 20.3833 7.03333 20.1 7.25 19.85L9 17.85C9.08333 17.7333 9.19583 17.6458 9.3375 17.5875C9.47917 17.5292 9.61667 17.5 9.75 17.5C10.1833 17.5 10.4875 17.6917 10.6625 18.075C10.8375 18.4583 10.7833 18.8167 10.5 19.15L9.6 20.175L10.45 20.6C10.7333 20.75 10.9083 20.9833 10.975 21.3C11.0417 21.6167 10.9667 21.9 10.75 22.15L9 24.15C8.91667 24.2667 8.80417 24.3542 8.6625 24.4125C8.52083 24.4708 8.38333 24.5 8.25 24.5C7.81667 24.5 7.5125 24.3083 7.3375 23.925C7.1625 23.5417 7.21667 23.1833 7.5 22.85ZM8 16.5C6.48333 16.5 5.1875 15.9625 4.1125 14.8875C3.0375 13.8125 2.5 12.5167 2.5 11C2.5 9.61667 2.95833 8.40833 3.875 7.375C4.79167 6.34167 5.925 5.73333 7.275 5.55C7.80833 4.6 8.5375 3.85417 9.4625 3.3125C10.3875 2.77083 11.4 2.5 12.5 2.5C14 2.5 15.3042 2.97917 16.4125 3.9375C17.5208 4.89583 18.1917 6.09167 18.425 7.525C19.575 7.625 20.5417 8.1 21.325 8.95C22.1083 9.8 22.5 10.8167 22.5 12C22.5 13.25 22.0625 14.3125 21.1875 15.1875C20.3125 16.0625 19.25 16.5 18 16.5H8ZM8 14.5H18C18.7 14.5 19.2917 14.2583 19.775 13.775C20.2583 13.2917 20.5 12.7 20.5 12C20.5 11.3 20.2583 10.7083 19.775 10.225C19.2917 9.74167 18.7 9.5 18 9.5H16.5V8.5C16.5 7.4 16.1083 6.45833 15.325 5.675C14.5417 4.89167 13.6 4.5 12.5 4.5C11.7 4.5 10.9708 4.71667 10.3125 5.15C9.65417 5.58333 9.15833 6.16667 8.825 6.9L8.575 7.5H7.95C7 7.53333 6.1875 7.8875 5.5125 8.5625C4.8375 9.2375 4.5 10.05 4.5 11C4.5 11.9667 4.84167 12.7917 5.525 13.475C6.20833 14.1583 7.03333 14.5 8 14.5Z" fill="white"/>
</g>
<defs>
<clipPath id="clip0_2601_56">
<rect width="24" height="24" fill="white" transform="translate(0.5 0.5)"/>
</clipPath>
</defs>
</svg>
