<svg width="17" height="17" viewBox="0 0 17 17" fill="none" xmlns="http://www.w3.org/2000/svg">
<g clip-path="url(#clip0_2601_70)">
<path d="M8.50009 0H8.50008C6.93527 0 5.66675 1.26853 5.66675 2.83333V14.1667C5.66675 15.7315 6.93527 17 8.50009 17C10.0649 17 11.3334 15.7315 11.3334 14.1667V2.83333C11.3334 1.26853 10.0649 0 8.50009 0Z" fill="#AD5BFF"/>
<path d="M0 8.50003C0 6.93522 1.26853 5.66669 2.83333 5.66669H14.1667C15.7315 5.66669 17 6.93522 17 8.50003C17 10.0648 15.7315 11.3334 14.1667 11.3334H2.83333C1.26853 11.3334 0 10.0648 0 8.50003Z" fill="#AD5BFF"/>
</g>
<defs>
<clipPath id="clip0_2601_70">
<rect width="17" height="17" fill="white"/>
</clipPath>
</defs>
</svg>
