<svg width="19" height="24" viewBox="0 0 19 24" fill="none" xmlns="http://www.w3.org/2000/svg">
<path d="M9.50008 11C10.3709 11 11.1164 10.6083 11.7366 9.825C12.3567 9.04167 12.6668 8.1 12.6668 7V4H6.33341V7C6.33341 8.1 6.64348 9.04167 7.26362 9.825C7.88376 10.6083 8.62925 11 9.50008 11ZM3.16675 22V20H4.75008V17C4.75008 15.9833 4.9381 15.0292 5.31414 14.1375C5.69018 13.2458 6.21466 12.5333 6.88758 12C6.21466 11.4667 5.69018 10.7542 5.31414 9.8625C4.9381 8.97083 4.75008 8.01667 4.75008 7V4H3.16675V2H15.8334V4H14.2501V7C14.2501 8.01667 14.0621 8.97083 13.686 9.8625C13.31 10.7542 12.7855 11.4667 12.1126 12C12.7855 12.5333 13.31 13.2458 13.686 14.1375C14.0621 15.0292 14.2501 15.9833 14.2501 17V20H15.8334V22H3.16675Z" fill="#AD5BFF"/>
</svg>
