<svg width="18" height="18" viewBox="0 0 18 18" fill="none" xmlns="http://www.w3.org/2000/svg">
<g clip-path="url(#clip0_2601_165)">
<path d="M2.1599 17.1L0.899902 15.84L10.1249 6.61499C9.8549 5.98499 9.8174 5.27249 10.0124 4.47749C10.2074 3.68249 10.6349 2.96999 11.2949 2.33999C12.0899 1.54499 12.9749 1.07999 13.9499 0.944994C14.9249 0.809994 15.7199 1.04999 16.3349 1.66499C16.9499 2.27999 17.1899 3.07499 17.0549 4.04999C16.9199 5.02499 16.4549 5.90999 15.6599 6.70499C15.0299 7.36499 14.3174 7.79249 13.5224 7.98749C12.7274 8.18249 12.0149 8.14499 11.3849 7.87499L10.2599 8.99999L17.0999 15.84L15.8399 17.1L8.9999 10.305L2.1599 17.1ZM4.8149 9.40499L2.1149 6.70499C1.3049 5.89499 0.899902 4.92749 0.899902 3.80249C0.899902 2.67749 1.3049 1.70999 2.1149 0.899994L7.6949 6.52499L4.8149 9.40499Z" fill="#AD5BFF"/>
</g>
<defs>
<clipPath id="clip0_2601_165">
<rect width="18" height="18" fill="white"/>
</clipPath>
</defs>
</svg>
