<svg width="20" height="20" viewBox="0 0 20 20" fill="none" xmlns="http://www.w3.org/2000/svg">
<path opacity="0.8" d="M8.76576 20C8.29307 20 7.88603 19.85 7.54464 19.55C7.20326 19.25 6.99755 18.8833 6.92752 18.45L6.69118 16.8C6.46359 16.7167 6.24912 16.6167 6.04779 16.5C5.84646 16.3833 5.64951 16.2583 5.45693 16.125L3.82878 16.775C3.39111 16.9583 2.95343 16.975 2.51576 16.825C2.07808 16.675 1.73669 16.4083 1.4916 16.025L0.257353 13.975C0.0122549 13.5917 -0.0577731 13.1833 0.0472689 12.75C0.152311 12.3167 0.388655 11.9583 0.756303 11.675L2.14811 10.675C2.1306 10.5583 2.12185 10.4458 2.12185 10.3375V9.6625C2.12185 9.55417 2.1306 9.44167 2.14811 9.325L0.756303 8.325C0.388655 8.04167 0.152311 7.68333 0.0472689 7.25C-0.0577731 6.81667 0.0122549 6.40833 0.257353 6.025L1.4916 3.975C1.73669 3.59167 2.07808 3.325 2.51576 3.175C2.95343 3.025 3.39111 3.04167 3.82878 3.225L5.45693 3.875C5.64951 3.74167 5.85084 3.61667 6.06092 3.5C6.27101 3.38333 6.48109 3.28333 6.69118 3.2L6.92752 1.55C6.99755 1.11667 7.20326 0.75 7.54464 0.45C7.88603 0.15 8.29307 0 8.76576 0H11.2342C11.7069 0 12.114 0.15 12.4554 0.45C12.7967 0.75 13.0025 1.11667 13.0725 1.55L13.3088 3.2C13.5364 3.28333 13.7509 3.38333 13.9522 3.5C14.1535 3.61667 14.3505 3.74167 14.5431 3.875L16.1712 3.225C16.6089 3.04167 17.0466 3.025 17.4842 3.175C17.9219 3.325 18.2633 3.59167 18.5084 3.975L19.7426 6.025C19.9877 6.40833 20.0578 6.81667 19.9527 7.25C19.8477 7.68333 19.6113 8.04167 19.2437 8.325L17.8519 9.325C17.8694 9.44167 17.8782 9.55417 17.8782 9.6625V10.3375C17.8782 10.4458 17.8606 10.5583 17.8256 10.675L19.2174 11.675C19.5851 11.9583 19.8214 12.3167 19.9265 12.75C20.0315 13.1833 19.9615 13.5917 19.7164 13.975L18.4559 16.025C18.2108 16.4083 17.8694 16.675 17.4317 16.825C16.994 16.975 16.5564 16.9583 16.1187 16.775L14.5431 16.125C14.3505 16.2583 14.1492 16.3833 13.9391 16.5C13.729 16.6167 13.5189 16.7167 13.3088 16.8L13.0725 18.45C13.0025 18.8833 12.7967 19.25 12.4554 19.55C12.114 19.85 11.7069 20 11.2342 20H8.76576ZM8.94958 18H11.0242L11.3918 15.35C11.9345 15.2167 12.4379 15.0208 12.9018 14.7625C13.3657 14.5042 13.7903 14.1917 14.1754 13.825L16.7752 14.85L17.7994 13.15L15.541 11.525C15.6285 11.2917 15.6898 11.0458 15.7248 10.7875C15.7598 10.5292 15.7773 10.2667 15.7773 10C15.7773 9.73333 15.7598 9.47083 15.7248 9.2125C15.6898 8.95417 15.6285 8.70833 15.541 8.475L17.7994 6.85L16.7752 5.15L14.1754 6.2C13.7903 5.81667 13.3657 5.49583 12.9018 5.2375C12.4379 4.97917 11.9345 4.78333 11.3918 4.65L11.0504 2H8.97584L8.60819 4.65C8.06548 4.78333 7.56215 4.97917 7.09821 5.2375C6.63428 5.49583 6.20973 5.80833 5.82458 6.175L3.22479 5.15L2.20063 6.85L4.45903 8.45C4.3715 8.7 4.31022 8.95 4.27521 9.2C4.2402 9.45 4.22269 9.71667 4.22269 10C4.22269 10.2667 4.2402 10.525 4.27521 10.775C4.31022 11.025 4.3715 11.275 4.45903 11.525L2.20063 13.15L3.22479 14.85L5.82458 13.8C6.20973 14.1833 6.63428 14.5042 7.09821 14.7625C7.56215 15.0208 8.06548 15.2167 8.60819 15.35L8.94958 18ZM10.0525 13.5C11.0679 13.5 11.9345 13.1583 12.6523 12.475C13.3701 11.7917 13.729 10.9667 13.729 10C13.729 9.03333 13.3701 8.20833 12.6523 7.525C11.9345 6.84167 11.0679 6.5 10.0525 6.5C9.01961 6.5 8.14863 6.84167 7.4396 7.525C6.73057 8.20833 6.37605 9.03333 6.37605 10C6.37605 10.9667 6.73057 11.7917 7.4396 12.475C8.14863 13.1583 9.01961 13.5 10.0525 13.5Z" fill="white"/>
</svg>
