<svg width="175" height="26" viewBox="0 0 175 26" fill="none" xmlns="http://www.w3.org/2000/svg">
<rect x="5.96399" y="20.9654" width="28.3556" height="5.82834" transform="rotate(-45 5.96399 20.9654)" fill="white"/>
<rect x="4.30453" y="10.695" width="14.2628" height="6.08754" transform="rotate(45 4.30453 10.695)" fill="white"/>
<g clip-path="url(#clip0_2618_78)">
<path d="M46.853 9.68844C46.7585 9.05871 46.5421 8.51556 46.2035 8.05899C45.873 7.59443 45.444 7.24027 44.9165 6.99627C44.3891 6.75214 43.7947 6.63013 43.1335 6.63013C42.2361 6.63013 41.4567 6.85455 40.7955 7.30327C40.1342 7.744 39.6186 8.38957 39.2486 9.23972C38.8786 10.082 38.6936 11.0936 38.6936 12.2745C38.6936 13.4789 38.8786 14.5022 39.2486 15.3446C39.6186 16.179 40.1302 16.8166 40.7836 17.2575C41.4449 17.6905 42.2164 17.9108 43.0981 17.9188C43.7514 17.9108 44.3379 17.7928 44.8574 17.5645C45.3848 17.3283 45.8178 16.9938 46.1564 16.5608C46.5027 16.1199 46.735 15.5965 46.853 14.9903L50.4544 15.0257C50.3128 16.1042 49.927 17.1039 49.2973 18.0249C48.6676 18.9382 47.8174 19.6742 46.7467 20.2331C45.6761 20.7841 44.4441 21.0597 43.0508 21.0597C41.5158 21.0597 40.1461 20.7134 38.9416 20.0205C37.7451 19.3199 36.8043 18.3084 36.1195 16.9859C35.4425 15.6555 35.1039 14.085 35.1039 12.2745C35.1039 10.456 35.4463 8.88556 36.1312 7.56299C36.824 6.23257 37.7686 5.22111 38.9652 4.52827C40.1696 3.83557 41.5315 3.4892 43.0508 3.4892C44.3654 3.4892 45.5541 3.73324 46.6168 4.22126C47.6796 4.70154 48.5416 5.40998 49.2028 6.34671C49.872 7.28356 50.2891 8.39743 50.4544 9.68844H46.853ZM56.3467 20.8235H52.8516V3.72537H56.2523V10.2434H56.394C56.6932 9.47986 57.1655 8.88943 57.8109 8.47228C58.4643 8.04714 59.2673 7.83457 60.2198 7.83457C61.1172 7.83457 61.9005 8.02743 62.5696 8.41315C63.2388 8.79887 63.7544 9.35387 64.1165 10.0781C64.4786 10.8023 64.6596 11.6604 64.6596 12.6523V20.8235H61.1645V13.2545C61.1645 12.727 61.0739 12.2745 60.8929 11.8966C60.7118 11.5187 60.4442 11.2314 60.0899 11.0346C59.7435 10.8377 59.3302 10.7394 58.85 10.7394C58.3541 10.7394 57.9212 10.8456 57.5512 11.0582C57.1812 11.2629 56.886 11.566 56.6656 11.9674C56.453 12.3689 56.3467 12.8452 56.3467 13.3962V20.8235ZM73.1968 21.0715C71.898 21.0715 70.7684 20.8038 69.808 20.2685C68.8554 19.7332 68.1234 18.9696 67.6117 17.9778C67.1 16.9859 66.8441 15.8208 66.8441 14.4826C66.8441 13.1679 67.1 12.0067 67.6117 10.9992C68.1312 9.99157 68.8554 9.21215 69.7844 8.66114C70.7211 8.11013 71.8114 7.83457 73.0553 7.83457C74.2046 7.83457 75.2319 8.07858 76.1371 8.56671C77.0424 9.04686 77.7549 9.77501 78.2744 10.7512C78.8019 11.7273 79.0656 12.9199 79.0656 14.329V15.3092H68.273V13.1246H75.771C75.7632 12.6129 75.6451 12.1524 75.4169 11.743C75.1964 11.3337 74.8854 11.0149 74.484 10.7866C74.0826 10.5583 73.626 10.4442 73.1143 10.4442C72.5711 10.4442 72.087 10.5702 71.6618 10.822C71.2367 11.066 70.9022 11.4046 70.6581 11.8376C70.422 12.2705 70.3 12.7429 70.2921 13.2545V15.3092C70.2921 15.9546 70.4141 16.5135 70.6581 16.9859C70.9101 17.4503 71.2564 17.8125 71.6973 18.0722C72.1381 18.3321 72.6537 18.4619 73.2441 18.4619C73.6377 18.4541 73.9959 18.3949 74.3187 18.2848C74.6414 18.1745 74.913 18.0289 75.1334 17.8479C75.3539 17.6589 75.527 17.4385 75.653 17.1866H78.9829C78.8097 17.9738 78.4673 18.6586 77.9556 19.2412C77.4439 19.8238 76.7826 20.2764 75.9719 20.5992C75.161 20.9141 74.236 21.0715 73.1968 21.0715ZM87.0361 21.0715C85.7449 21.0715 84.6232 20.7959 83.6708 20.2449C82.7182 19.6859 81.99 18.9066 81.4862 17.9069C80.9823 16.9072 80.7305 15.7578 80.7305 14.4589C80.7305 13.1522 80.9863 11.9989 81.498 10.9992C82.0097 9.99943 82.7379 9.224 83.6825 8.67299C84.6272 8.114 85.7371 7.83457 87.0124 7.83457C88.1066 7.83457 89.0788 8.03529 89.929 8.43685C90.7792 8.83043 91.4444 9.39715 91.9245 10.1372C92.4127 10.8772 92.6803 11.7313 92.7275 12.6995H89.4212C89.3582 12.2744 89.2244 11.9005 89.0198 11.5777C88.8151 11.255 88.5435 11.007 88.2051 10.8339C87.8744 10.6527 87.4965 10.5583 87.0714 10.5504C86.5125 10.5583 86.0245 10.7119 85.6072 11.011C85.1901 11.3102 84.8633 11.7509 84.6272 12.3335C84.391 12.9082 84.2729 13.5969 84.2729 14.3999C84.2729 15.2186 84.3871 15.9192 84.6153 16.5018C84.8515 17.0763 85.1782 17.5212 85.5954 17.8361C86.0126 18.1431 86.5046 18.2926 87.0714 18.2848C87.4808 18.2926 87.8508 18.2139 88.1814 18.0486C88.5121 17.8754 88.7836 17.6313 88.9961 17.3165C89.2165 17.0016 89.3582 16.6159 89.4212 16.1593H92.7275C92.6724 17.1355 92.4048 17.9935 91.9245 18.7335C91.4522 19.4735 90.7949 20.0481 89.9527 20.4575C89.1102 20.8668 88.1381 21.0715 87.0361 21.0715ZM98.053 12.8885H98.5726L102.741 7.99986H106.767L101.218 14.4353H100.403L98.053 17.0803V12.8885ZM94.8884 3.72537H98.3836V20.8235H94.8884V3.72537ZM99.0803 15.2146L101.406 12.7349L107.003 20.8235H102.906L99.0803 15.2146ZM124.019 3.72537L128.778 15.3092H128.978L133.725 3.72537H138.106V20.8235H134.658V9.61758H134.516L130.053 20.7408H127.679L123.228 9.594H123.086V20.8235H119.65V3.72537H124.019ZM148.438 15.2855C148.225 15.3012 148.052 15.313 147.919 15.3209C147.792 15.3288 147.607 15.3406 147.364 15.3563C146.71 15.3799 146.136 15.4193 145.64 15.4745C145.017 15.5216 144.53 15.6909 144.176 15.9822C143.829 16.2656 143.652 16.6513 143.644 17.1393C143.644 17.4542 143.727 17.7259 143.892 17.9542C144.057 18.1745 144.282 18.3438 144.565 18.4619C144.856 18.5799 145.191 18.6351 145.569 18.6272C146.089 18.6351 146.553 18.5366 146.963 18.3321C147.38 18.1195 147.702 17.8321 147.93 17.47C148.159 17.1 148.272 16.6906 148.272 16.2419L148.249 12.0973C148.249 11.7352 148.171 11.4282 148.014 11.1763C147.864 10.9165 147.635 10.7236 147.328 10.5977C147.021 10.4639 146.651 10.397 146.218 10.397C145.619 10.397 145.136 10.5229 144.766 10.7749C144.404 11.0189 144.176 11.3652 144.081 11.8139H140.751C140.822 11.0582 141.086 10.3812 141.542 9.78287C141.999 9.17673 142.629 8.70056 143.432 8.35414C144.242 8.00772 145.199 7.83457 146.301 7.83457C147.293 7.83457 148.199 7.98414 149.017 8.28328C149.836 8.58243 150.492 9.06258 150.989 9.72387C151.485 10.3773 151.736 11.196 151.745 12.18V20.8235H148.426V19.0523H148.332C148.001 19.6742 147.521 20.1662 146.891 20.5284C146.27 20.8825 145.494 21.0597 144.565 21.0597C143.739 21.0597 143.006 20.9179 142.369 20.6346C141.731 20.3434 141.227 19.9104 140.857 19.3356C140.487 18.7611 140.302 18.0643 140.302 17.2456C140.302 15.9153 140.743 14.947 141.625 14.3409C142.507 13.7269 143.656 13.3765 145.073 13.2899C145.459 13.2585 145.876 13.2349 146.324 13.219C146.781 13.1955 147.218 13.1719 147.635 13.1482C147.895 13.1403 148.155 13.1325 148.415 13.1246L148.438 15.2855ZM161.156 10.6213H153.48V7.99986H161.156V10.6213ZM158.747 4.92983V16.8796C158.747 17.2102 158.794 17.47 158.889 17.6589C158.99 17.84 159.128 17.9699 159.302 18.0486C159.482 18.1273 159.704 18.1666 159.962 18.1666C160.081 18.1745 160.227 18.1745 160.4 18.1666C160.573 18.1588 160.746 18.1509 160.919 18.1431L161.332 18.1076V20.8708C160.798 20.9574 160.187 21.0006 159.503 21.0006C158.636 21.0006 157.885 20.8708 157.247 20.6109C156.609 20.3434 156.114 19.9418 155.759 19.4065C155.412 18.8634 155.239 18.1825 155.239 17.3638V4.92983H158.747ZM169.031 21.0715C167.732 21.0715 166.603 20.8038 165.643 20.2685C164.69 19.7332 163.957 18.9696 163.446 17.9778C162.934 16.9859 162.679 15.8208 162.679 14.4826C162.679 13.1679 162.934 12.0067 163.446 10.9992C163.966 9.99157 164.69 9.21215 165.619 8.66114C166.556 8.11013 167.646 7.83457 168.889 7.83457C170.039 7.83457 171.066 8.07858 171.972 8.56671C172.877 9.04686 173.589 9.77501 174.109 10.7512C174.637 11.7273 174.9 12.9199 174.9 14.329V15.3092H164.107V13.1246H171.605C171.598 12.6129 171.479 12.1524 171.251 11.743C171.031 11.3337 170.72 11.0149 170.319 10.7866C169.917 10.5583 169.46 10.4442 168.949 10.4442C168.406 10.4442 167.921 10.5702 167.497 10.822C167.071 11.066 166.737 11.4046 166.493 11.8376C166.257 12.2705 166.135 12.7429 166.127 13.2545V15.3092C166.127 15.9546 166.249 16.5135 166.493 16.9859C166.744 17.4503 167.091 17.8125 167.532 18.0722C167.973 18.3321 168.488 18.4619 169.079 18.4619C169.472 18.4541 169.83 18.3949 170.153 18.2848C170.476 18.1745 170.748 18.0289 170.968 17.8479C171.188 17.6589 171.362 17.4385 171.488 17.1866H174.818C174.644 17.9738 174.302 18.6586 173.79 19.2412C173.279 19.8238 172.617 20.2764 171.806 20.5992C170.996 20.9141 170.071 21.0715 169.031 21.0715Z" fill="white"/>
<path d="M110.898 6.64425C110.898 6.07752 111.083 5.60909 111.453 5.23909C111.831 4.86123 112.295 4.67236 112.846 4.67236C113.744 4.67236 114.362 5.06594 114.7 5.8531C114.802 6.09723 114.854 6.36094 114.854 6.64425C114.854 7.19538 114.665 7.66368 114.287 8.0494C113.909 8.4194 113.429 8.6044 112.846 8.6044C112.295 8.6044 111.831 8.4194 111.453 8.0494C111.083 7.67154 110.898 7.20324 110.898 6.64425ZM112.681 14.6384C114.137 14.6384 114.865 15.4689 114.865 17.1299C114.865 19.0586 114.224 20.7117 112.941 22.0893C112.594 22.4672 112.291 22.7191 112.031 22.845C111.74 22.845 111.476 22.6993 111.24 22.4081C111.169 22.3215 111.134 22.231 111.134 22.1365C111.181 22.0656 111.268 21.9436 111.394 21.7705C111.528 21.5973 111.665 21.3808 111.807 21.121C112.153 20.444 112.327 19.7435 112.327 19.0192C112.327 18.043 111.85 17.5196 110.898 17.4487C110.788 17.1889 110.733 16.9213 110.733 16.6457C110.733 16.3623 110.776 16.1066 110.862 15.8783C110.957 15.642 111.091 15.4334 111.264 15.2524C111.642 14.843 112.114 14.6384 112.681 14.6384Z" fill="white"/>
</g>
<defs>
<clipPath id="clip0_2618_78">
<rect width="140" height="20" fill="white" transform="translate(35 2.91498)"/>
</clipPath>
</defs>
</svg>
