<svg width="74" height="115" viewBox="0 0 74 115" fill="none" xmlns="http://www.w3.org/2000/svg">
<path d="M36.6251 51.75C41.6324 51.75 45.9189 49.4979 49.4847 44.9937C53.0505 40.4896 54.8334 35.075 54.8334 28.75V11.5H18.4168V28.75C18.4168 35.075 20.1997 40.4896 23.7655 44.9937C27.3313 49.4979 31.6178 51.75 36.6251 51.75ZM0.208435 115V103.5H9.3126V86.25C9.3126 80.4042 10.3937 74.9177 12.556 69.7906C14.7182 64.6635 17.734 60.5667 21.6032 57.5C17.734 54.4333 14.7182 50.3365 12.556 45.2094C10.3937 40.0823 9.3126 34.5958 9.3126 28.75V11.5H0.208435V0H73.0418V11.5H63.9376V28.75C63.9376 34.5958 62.8565 40.0823 60.6942 45.2094C58.532 50.3365 55.5163 54.4333 51.647 57.5C55.5163 60.5667 58.532 64.6635 60.6942 69.7906C62.8565 74.9177 63.9376 80.4042 63.9376 86.25V103.5H73.0418V115H0.208435Z" fill="#AB87FF"/>
</svg>
