<svg width="130" height="130" viewBox="0 0 130 130" fill="none" xmlns="http://www.w3.org/2000/svg">
<path d="M48.75 16.2503V5.41693H81.25V16.2503H48.75ZM59.5833 75.8336H70.4167V43.3336H59.5833V75.8336ZM65 119.167C58.3194 119.167 52.0226 117.88 46.1094 115.308C40.1962 112.735 35.0278 109.236 30.6042 104.813C26.1806 100.389 22.6823 95.2208 20.1094 89.3076C17.5365 83.3944 16.25 77.0975 16.25 70.4169C16.25 63.7364 17.5365 57.4395 20.1094 51.5263C22.6823 45.6131 26.1806 40.4447 30.6042 36.0211C35.0278 31.5975 40.1962 28.0992 46.1094 25.5263C52.0226 22.9534 58.3194 21.6669 65 21.6669C70.5972 21.6669 75.9688 22.5697 81.1146 24.3753C86.2604 26.1808 91.0903 28.7989 95.6042 32.2294L103.188 24.6461L110.771 32.2294L103.188 39.8128C106.618 44.3267 109.236 49.1565 111.042 54.3023C112.847 59.4482 113.75 64.8197 113.75 70.4169C113.75 77.0975 112.464 83.3944 109.891 89.3076C107.318 95.2208 103.819 100.389 99.3958 104.813C94.9722 109.236 89.8038 112.735 83.8906 115.308C77.9774 117.88 71.6806 119.167 65 119.167ZM65 108.334C75.4722 108.334 84.4097 104.632 91.8125 97.2294C99.2153 89.8267 102.917 80.8892 102.917 70.4169C102.917 59.9447 99.2153 51.0072 91.8125 43.6044C84.4097 36.2017 75.4722 32.5003 65 32.5003C54.5278 32.5003 45.5903 36.2017 38.1875 43.6044C30.7847 51.0072 27.0833 59.9447 27.0833 70.4169C27.0833 80.8892 30.7847 89.8267 38.1875 97.2294C45.5903 104.632 54.5278 108.334 65 108.334Z" fill="#AB87FF"/>
</svg>
